<svg width="52" height="49" viewBox="0 0 52 49" fill="none" xmlns="http://www.w3.org/2000/svg">
<path fill-rule="evenodd" clip-rule="evenodd" d="M35.056 39.5695L36.7952 30.8497L38.5557 33.4707C42.3473 31.9658 44.4759 29.4869 44.7933 25.6704C47.9121 31.0503 46.0163 35.8743 42.0723 38.6959L43.8665 41.367L35.056 39.5695ZM6.82162 35.5231C8.70475 35.5231 10.4102 36.2755 11.6458 37.4962C12.8815 38.7168 13.6432 40.4014 13.6432 42.2616C13.6432 44.1217 12.8773 45.8063 11.6458 47.027C10.4102 48.2476 8.70475 49 6.82162 49C4.93848 49 3.23307 48.2434 1.9974 47.027C0.76595 45.8063 0 44.1217 0 42.2616C0 40.4014 0.76595 38.7168 1.9974 37.4962C3.23307 36.2755 4.93848 35.5231 6.82162 35.5231ZM6.54655 41.7307H7.98112V42.851H6.71159C6.69466 43.1143 6.64811 43.3526 6.56348 43.5658C6.49577 43.7246 6.38574 43.896 6.2334 44.0674C6.41113 44.0298 6.55925 44.0089 6.6862 44.0089C6.84701 44.0089 7.05859 44.0381 7.31673 44.1008C7.6722 44.1803 7.9515 44.2221 8.16309 44.2221C8.33659 44.2221 8.4847 44.2053 8.61165 44.1803C8.73861 44.151 8.90788 44.0925 9.11523 44.0005L9.75846 45.3967C9.44531 45.5514 9.17448 45.6559 8.9375 45.7144C8.70052 45.7729 8.44661 45.8022 8.17578 45.8022C7.87956 45.8022 7.54102 45.752 7.16016 45.6475C6.66081 45.5096 6.34766 45.4343 6.22917 45.4134C6.11068 45.3925 5.97949 45.38 5.83984 45.38C5.43359 45.38 4.98503 45.5179 4.49414 45.8022L3.88053 44.4729C4.54492 44.0047 4.87923 43.5365 4.87923 43.0683C4.87923 43.0432 4.875 42.9722 4.87077 42.8593H3.88477V41.739H4.59147C4.47298 41.3294 4.40104 41.0911 4.38835 41.0242C4.37142 40.9239 4.35872 40.8027 4.35872 40.6564C4.35872 40.2676 4.46452 39.9165 4.67611 39.6113C4.88346 39.302 5.15853 39.0763 5.5013 38.9383C5.84408 38.8004 6.30111 38.7293 6.88086 38.7293C7.42253 38.7293 7.84993 38.792 8.16732 38.9091C8.4847 39.0303 8.7513 39.2268 8.97135 39.5026C9.19141 39.7827 9.33952 40.1171 9.42415 40.5142L7.61719 40.7901C7.52832 40.4599 7.42253 40.2384 7.30404 40.1297C7.18555 40.021 7.05436 39.9666 6.90202 39.9666C6.72005 39.9666 6.57194 40.0252 6.46191 40.1422C6.34766 40.2593 6.29264 40.4265 6.29264 40.6438C6.29264 40.7609 6.30534 40.8696 6.3265 40.9782C6.33919 41.0827 6.41536 41.3336 6.54655 41.7307ZM45.1784 0C47.0615 0 48.7669 0.756611 50.0026 1.97304C51.2383 3.19365 52 4.87826 52 6.73844C52 8.59862 51.2341 10.2832 50.0026 11.5038C48.7669 12.7244 47.0615 13.4769 45.1784 13.4769C43.2952 13.4769 41.5898 12.7203 40.3542 11.5038C39.1185 10.2832 38.3568 8.59862 38.3568 6.73844C38.3568 4.87826 39.1227 3.19365 40.3542 1.97304C41.5898 0.756611 43.2952 0 45.1784 0ZM47.9036 4.68597L46.139 4.95769C46.0501 4.73614 45.9697 4.58565 45.902 4.50205C45.8301 4.41844 45.7158 4.33066 45.5508 4.24706V5.59725C46.5072 5.85224 47.1462 6.11977 47.4678 6.39567C47.891 6.77188 48.1068 7.24842 48.1068 7.82947C48.1068 8.16806 48.0306 8.48157 47.8783 8.76164C47.7259 9.0459 47.527 9.27999 47.2943 9.47227C47.0573 9.66456 46.8034 9.79833 46.5368 9.88611C46.2702 9.97389 45.9401 10.0199 45.555 10.0366V10.9144H44.8695V10.0366C44.4082 9.99898 44.0316 9.92373 43.7396 9.81505C43.4518 9.71054 43.2021 9.56006 42.9906 9.37195C42.7832 9.18384 42.6182 8.97901 42.5081 8.76164C42.3939 8.54428 42.3092 8.27674 42.2542 7.96741L44.1628 7.75004C44.2178 8.0552 44.2982 8.27674 44.3913 8.41469C44.4844 8.55264 44.6452 8.66968 44.8695 8.77837V7.1272C44.2305 6.95163 43.7777 6.80114 43.5111 6.67574C43.2445 6.55033 43.016 6.34132 42.8213 6.06125C42.6266 5.78118 42.5251 5.43423 42.5251 5.03293C42.5251 4.47697 42.7197 4.01297 43.1133 3.64093C43.5068 3.2689 44.0908 3.05989 44.8652 3.02227V2.56245H45.5508V3.02227C46.2575 3.06407 46.7992 3.23127 47.1716 3.51553C47.5439 3.79978 47.7894 4.18853 47.9036 4.68597ZM44.861 4.22198C44.6579 4.28886 44.5182 4.36828 44.4378 4.46443C44.3574 4.56057 44.3193 4.67343 44.3193 4.8072C44.3193 4.94515 44.3574 5.06219 44.4421 5.16251C44.5225 5.26702 44.6663 5.35062 44.8652 5.41751L44.861 4.22198ZM45.5508 8.82435C45.8174 8.76582 46.012 8.6655 46.139 8.53173C46.266 8.39797 46.3252 8.2433 46.3252 8.0761C46.3252 7.92979 46.2702 7.79602 46.1686 7.67062C46.0628 7.54939 45.8555 7.43235 45.5508 7.32785V8.82435ZM6.92318 30.6658L31.9245 5.96929L44.9245 18.8108L19.9232 43.5073L6.92318 30.6658ZM22.111 20.9552C24.2269 18.8651 27.6462 18.8651 29.762 20.9552C31.8779 23.0453 31.8779 26.4229 29.762 28.5171C27.6462 30.6072 24.2269 30.6072 22.111 28.5171C19.9909 26.4229 19.9909 23.0453 22.111 20.9552ZM13.0846 28.4921L29.707 12.0682C30.765 13.1132 32.4915 13.1132 33.5452 12.0682L38.6868 17.1429C37.6289 18.1879 37.6289 19.8934 38.6868 20.9343L22.0645 37.3624C21.0065 36.3173 19.2799 36.3173 18.2262 37.3624L13.0846 32.2877C14.1426 31.2384 14.1426 29.5371 13.0846 28.4921ZM24.0788 1.8769L22.3395 10.5967L20.5791 7.97577C16.7874 9.48063 14.6589 11.9595 14.3372 15.776C11.2227 10.3961 13.1143 5.57217 17.0583 2.75055L15.264 0.0794233L24.0788 1.8769Z" fill="white"/>
</svg>
