<svg width="43" height="48" viewBox="0 0 43 48" fill="none" xmlns="http://www.w3.org/2000/svg">
<path d="M9.55556 21.6H14.3333V26.4H9.55556V21.6ZM43 9.6V43.2C43 45.84 40.85 48 38.2222 48H4.77778C2.12611 48 0 45.84 0 43.2L0.0238889 9.6C0.0238889 6.96 2.12611 4.8 4.77778 4.8H7.16667V0H11.9444V4.8H31.0556V0H35.8333V4.8H38.2222C40.85 4.8 43 6.96 43 9.6ZM4.77778 14.4H38.2222V9.6H4.77778V14.4ZM38.2222 43.2V19.2H4.77778V43.2H38.2222ZM28.6667 26.4H33.4444V21.6H28.6667V26.4ZM19.1111 26.4H23.8889V21.6H19.1111V26.4Z" fill="white"/>
</svg>
