<svg width="45" height="52" viewBox="0 0 45 52" fill="none" xmlns="http://www.w3.org/2000/svg">
<path d="M22.5 52C34.9264 52 45 40.3594 45 26C45 11.6406 34.9264 0 22.5 0C10.0736 0 0 11.6406 0 26C0 40.3594 10.0736 52 22.5 52Z" fill="#EEAF4B"/>
<path d="M22.5 48C12.299 48 4 38.131 4 26C4 13.869 12.299 4 22.5 4C32.701 4 41 13.869 41 26C41 38.131 32.701 48 22.5 48Z" fill="#F0C419"/>
<path d="M22.5 35C19.957 35 17 31.068 17 26C17 20.932 19.957 17 22.5 17C25.043 17 28 20.932 28 26C28 31.068 25.043 35 22.5 35Z" fill="#F3D55B"/>
</svg>
